<mxfile host="app.diagrams.net" modified="2024-05-23T05:39:59.756Z" agent="Mozilla/5.0 (Windows NT 10.0; Win64; x64) AppleWebKit/537.36 (KHTML, like Gecko) Chrome/123.0.0.0 Safari/537.36 OPR/109.0.0.0" version="24.0.5" etag="1VNqVcRqcyGGPE7oF80Z" type="github">
  <diagram name="Halaman-1" id="MUh2MNRiSP9IBNjPyRPt">
    <mxGraphModel>
      <root>
        <mxCell id="0" />
        <mxCell id="1" parent="0" />
      </root>
    </mxGraphModel>
  </diagram>
</mxfile>
